<svg xmlns="http://www.w3.org/2000/svg" width="41" height="40" viewBox="0 0 41 40" fill="none">
  <g clip-path="url(#clip0_2371_882)">
    <path d="M1.70703 1.71289H39.2904V38.2866H1.70703V1.71289Z" fill="#2E001E" />
    <path d="M0 0.00390625V39.9957H41V0.00390625H0ZM1.70833 1.71296H39.2917V38.2867H1.70833V1.71296Z" fill="#FF2BC2" />
    <path
      d="M29.7762 16.805C29.5199 16.6853 29.1953 16.6341 28.7853 16.6341C26.6328 16.6341 25.1978 18.2918 25.1978 21.0434C25.1978 24.1881 26.667 25.4528 28.5803 25.4528C28.9903 25.4528 29.4345 25.4015 29.7591 25.2648V16.805H29.7762ZM22.1228 21.1801C22.1228 17.1981 24.6853 14.0876 28.8878 14.0876C29.2466 14.0876 29.4345 14.0876 29.7762 14.1218V9.67823C29.7762 9.57569 29.8616 9.50732 29.947 9.50732H32.6974C32.8341 9.50732 32.8682 9.5586 32.8682 9.64405V25.2648C32.8682 25.7262 32.8682 26.3073 32.9537 26.9396C32.9537 27.0593 32.9537 27.0764 32.8512 27.1276C31.4162 27.8113 29.9128 28.1189 28.4778 28.1189C24.7707 28.1189 22.1228 25.8288 22.1228 21.1801ZM16.2974 18.4115L21.0807 27.6916C21.1662 27.8284 21.1149 27.9651 20.9782 27.9651H18.0057C17.8178 27.9651 17.7324 27.9138 17.647 27.7429C16.5537 25.487 15.4432 23.1456 14.2986 20.7187H14.2645C13.2395 23.0088 12.112 25.504 11.0186 27.76C10.9332 27.8967 10.8478 27.948 10.7111 27.948H7.87532C7.70448 27.948 7.6874 27.8113 7.77282 27.7087L12.4536 18.702L7.92657 9.74659C7.82407 9.60987 7.92657 9.49023 8.04615 9.49023H10.9845C11.1553 9.49023 11.2407 9.52442 11.292 9.67823C12.3682 11.9513 13.4616 14.1901 14.4866 16.4803H14.5207C15.5116 14.2243 16.6049 11.9513 17.647 9.71241C17.7324 9.57569 17.7837 9.49023 17.9545 9.49023H20.7049C20.8416 9.49023 20.8928 9.59278 20.8074 9.74659L16.2974 18.4115Z"
      fill="#FF2BC2" />
  </g>
  <defs>
    <clipPath id="clip0_2371_882">
      <rect width="41" height="40" fill="white" />
    </clipPath>
  </defs>
</svg>