<svg xmlns="http://www.w3.org/2000/svg" width="35" height="42" viewBox="0 0 35 42" fill="none">
  <g clip-path="url(#clip0_2371_886)">
    <path
      d="M4.44855 40.4813C2.64946 40.4813 1.20312 39.0321 1.20312 37.2686V4.09359C1.20312 2.31262 2.66709 0.880859 4.44855 0.880859H23.7976C24.6619 0.880859 25.4732 1.21261 26.0906 1.82373L32.7402 8.40634C33.3575 9.01746 33.6926 9.82064 33.6926 10.6762V37.2511C33.6926 39.0321 32.2287 40.4638 30.4472 40.4638H4.44855V40.4813Z"
      fill="#271910" />
    <path
      d="M23.7982 1.615C24.4685 1.615 25.0858 1.87691 25.5621 2.34834L32.2117 8.93095C32.6879 9.40239 32.9524 10.0135 32.9524 10.677V37.2519C32.9524 38.6138 31.8236 39.7313 30.4478 39.7313H4.44918C3.0734 39.7313 1.94456 38.6138 1.94456 37.2519V4.09439C1.94456 2.73247 3.0734 1.615 4.44918 1.615H23.7982ZM23.7982 0.130859H4.44918C2.2444 0.130859 0.445312 1.91183 0.445312 4.09439V37.2519C0.445312 39.4345 2.2444 41.2154 4.44918 41.2154H30.4478C32.6526 41.2154 34.4517 39.4345 34.4517 37.2519V10.6945C34.4517 9.64684 34.0284 8.63412 33.2876 7.90078L26.6203 1.30071C25.8619 0.549911 24.8565 0.130859 23.7982 0.130859Z"
      fill="#F57E21" />
    <path
      d="M24.0445 12.0566H22.0337C21.9103 12.0566 21.875 12.109 21.875 12.2138H21.8926V22.2187C21.8926 22.3234 21.9279 22.3758 22.0514 22.3758H24.0445C24.168 22.3758 24.2032 22.3234 24.2032 22.2187V12.1963C24.2032 12.0916 24.1503 12.0566 24.0445 12.0566Z"
      fill="#F57F22" />
    <path
      d="M23.022 10.6076C23.798 10.6076 24.3448 10.1536 24.3448 9.31552C24.3448 8.54725 23.8157 8.02344 23.0396 8.02344C22.3164 8.02344 21.7344 8.51233 21.7344 9.31552C21.7344 10.1711 22.2812 10.6251 23.022 10.6076Z"
      fill="#F57F22" />
    <path
      d="M9.7778 22.3747H11.6651C11.7885 22.3747 11.8238 22.3572 11.8591 22.2524L12.8645 18.4286H16.9742L18.0325 22.2524C18.0501 22.3397 18.1206 22.3747 18.2265 22.3747H20.3607C20.4665 22.3747 20.4842 22.3223 20.4665 22.2175L16.3921 8.52847C16.3745 8.42371 16.3392 8.40625 16.2334 8.40625H13.5347C13.4642 8.40625 13.4289 8.44117 13.4289 8.52847C13.4113 9.15705 13.3583 9.36658 13.3054 9.5761L9.67197 22.1826C9.61905 22.3397 9.63669 22.3747 9.7778 22.3747ZM14.8576 10.4142H14.8752C15.1927 11.8984 16.0393 14.9714 16.4097 16.3857H13.376C13.9228 14.4127 14.593 11.8984 14.8576 10.4142Z"
      fill="#F57F22" />
    <path
      d="M20.4662 29.0977H19.5666C19.5137 29.0977 19.4961 29.1326 19.4961 29.185V35.2961C19.4961 35.366 19.5137 35.4009 19.5666 35.4009H20.4662C20.5191 35.4009 20.5367 35.366 20.5367 35.3136V29.185C20.5367 29.1151 20.5015 29.0977 20.4662 29.0977Z"
      fill="white" />
    <path
      d="M14.0283 35.4011H14.8749C14.9278 35.4011 14.9455 35.3837 14.9631 35.3488L15.4217 33.6376H17.2737L17.7499 35.3662C17.7676 35.4011 17.7852 35.4186 17.8381 35.4186H18.7906C18.8435 35.4186 18.8435 35.3837 18.8435 35.3488L17.0091 29.1852C16.9915 29.1328 16.9739 29.1328 16.9386 29.1328H15.7215C15.6863 29.1328 15.6686 29.1503 15.6686 29.1852C15.651 29.4646 15.6334 29.5519 15.6157 29.6566L13.9754 35.3488C13.9577 35.3837 13.9754 35.4011 14.0283 35.4011ZM16.3212 30.0058C16.48 30.6693 16.868 32.0662 17.0268 32.6948H15.651C15.8979 31.8043 16.1978 30.6868 16.3212 30.0058Z"
      fill="white" />
  </g>
  <defs>
    <clipPath id="clip0_2371_886">
      <rect width="35" height="42" fill="white" />
    </clipPath>
  </defs>
</svg>