<svg xmlns="http://www.w3.org/2000/svg" width="114" height="152" viewBox="0 0 114 152" fill="none">
  <path opacity="0.81"
    d="M145.803 68.9611C150.242 77.1669 152.331 84.6189 152.299 91.1175C152.016 97.6873 149.691 103.413 145.643 108.191C141.467 113.305 135.757 117.765 128.924 121.485C122.142 125.896 114.387 129.867 106.025 133.096C97.7984 137.153 89.6988 139.934 82.018 141.36C74.2996 143.117 66.788 143.148 59.7201 141.416C52.4006 139.694 45.3265 136.109 38.8603 130.774C32.0277 125.428 25.7534 118.401 20.5826 109.868C15.1848 101.371 11.5935 92.2077 9.82916 82.9406C8.12885 73.6935 8.3969 64.3403 10.5305 55.4346C12.8199 46.6152 16.971 38.3451 22.7806 31.2449C28.7104 24.4494 36.2319 19.0373 45.1399 15.619C54.144 12.7931 63.6534 12.3369 73.1781 13.9144C82.7958 16.0035 92.4281 19.9341 101.556 25.2531C110.793 30.8686 119.499 37.6538 127.12 45.1114C134.749 52.689 141.177 60.7856 145.803 68.9611Z"
    stroke="url(#paint0_linear_1782_1060)" strokeOpacity="0.5" strokeWidth="2" strokeLinecap="round"
    strokeDasharray="8 2" />
  <path opacity="0.85"
    d="M136.323 71.4131C140.276 81.6089 139.266 98.438 134.848 105.002C131.345 109.345 126.603 113.096 120.903 116.131C115.196 119.649 108.648 122.64 101.489 124.863C94.4004 127.641 87.3611 129.301 80.663 129.846C73.9266 130.635 67.4093 130.069 61.3509 128.136C55.125 126.238 49.2494 122.883 44.0329 118.153C38.5837 113.404 33.7654 107.302 30.0035 100.001C26.0814 92.7042 23.7031 84.9367 22.8296 77.1537C21.9805 69.4187 22.7203 61.7109 24.95 54.4911C27.2693 47.3737 31.0775 40.8448 36.2069 35.3813C41.3996 30.1732 47.8653 26.1654 55.4264 23.8359C63.0272 21.9447 70.9717 21.9703 78.8527 23.6282C86.7571 25.6555 94.6062 29.1839 101.955 33.8418C109.333 38.718 116.218 44.5726 122.139 50.9861C128.037 57.4819 132.921 64.4208 136.323 71.4131Z"
    stroke="url(#paint1_linear_1782_1060)" strokeOpacity="0.5" strokeWidth="2" strokeLinecap="round"
    strokeDasharray="3 4" />
  <path opacity="0.89"
    d="M126.91 73.3338C131.316 84.8098 130.032 94.3868 124.532 101.056C118.763 108.36 109.179 113.838 97.4734 116.237C85.8056 120.046 74.1577 119.754 64.4064 115.694C54.2482 111.791 45.4833 103.441 40.4889 91.4965C35.0745 79.56 34.89 66.5412 39.1728 55.3853C43.6028 44.5967 52.5601 36.19 64.8113 33.0599C77.0846 31.0596 90.1832 34.9543 101.474 42.5651C112.756 50.7561 122.155 61.8645 126.91 73.3338Z"
    stroke="url(#paint2_linear_1782_1060)" strokeOpacity="0.5" strokeWidth="2" strokeLinecap="round" />
  <path opacity="0.92"
    d="M117.546 74.8933C120.332 83.6766 119.031 91.13 114.728 96.3676C110.267 101.968 102.985 105.942 94.0688 107.219C85.1129 109.266 76.1808 108.099 68.8158 104.279C61.224 100.588 54.9906 93.8212 51.8796 84.7309C48.5489 75.6294 49.1568 66.068 52.944 58.1706C56.7684 50.5255 63.7953 44.8762 73.0624 43.2061C82.2954 42.2051 91.9311 45.4802 100.03 51.4005C108.072 57.6583 114.55 66.0993 117.546 74.8933Z"
    stroke="url(#paint3_linear_1782_1060)" strokeOpacity="0.5" strokeWidth="2" strokeLinecap="round"
    strokeDasharray="5 10" />
  <path opacity="0.96"
    d="M108.13 76.1778C111.025 88.1165 103.401 97.1695 91.3878 97.7883C79.2219 99.7385 67.1169 92.2766 63.9572 80.0335C60.4004 67.7419 67.5351 55.7582 79.9676 54.1831C92.2535 53.8091 104.859 64.1831 108.13 76.1778Z"
    stroke="url(#paint4_linear_1782_1060)" strokeOpacity="0.5" strokeWidth="2" strokeLinecap="round"
    strokeDasharray="9 5" />
  <defs>
    <linearGradient id="paint0_linear_1782_1060" x1="148.433" y1="64.5125" x2="10.4486" y2="86.8611"
      gradientUnits="userSpaceOnUse">
      <stop stopColor="#FC7EFF" />
      <stop offset="1" stopColor="#6FDCFF" />
    </linearGradient>
    <linearGradient id="paint1_linear_1782_1060" x1="137.532" y1="70.2907" x2="23.132" y2="80.6214"
      gradientUnits="userSpaceOnUse">
      <stop stopColor="#FC7EFF" />
      <stop offset="1" stopColor="#6FDCFF" />
    </linearGradient>
    <linearGradient id="paint2_linear_1782_1060" x1="129.338" y1="74.6943" x2="36.2574" y2="76.514"
      gradientUnits="userSpaceOnUse">
      <stop stopColor="#FC7EFF" />
      <stop offset="1" stopColor="#6FDCFF" />
    </linearGradient>
    <linearGradient id="paint3_linear_1782_1060" x1="119.363" y1="77.5895" x2="49.5876" y2="74.0304"
      gradientUnits="userSpaceOnUse">
      <stop stopColor="#FC7EFF" />
      <stop offset="1" stopColor="#6FDCFF" />
    </linearGradient>
    <linearGradient id="paint4_linear_1782_1060" x1="109.115" y1="79.2022" x2="62.9009" y2="73.5606"
      gradientUnits="userSpaceOnUse">
      <stop stopColor="#FC7EFF" />
      <stop offset="1" stopColor="#6FDCFF" />
    </linearGradient>
  </defs>
</svg>