<svg xmlns="http://www.w3.org/2000/svg" width="24" height="24" viewBox="0 0 28 28" fill="none">
  <path
    d="M10.0327 19.366L4.66602 13.9993L10.0327 8.63268L11.666 10.3243L7.99102 13.9993L11.666 17.6743L10.0327 19.366ZM5.83268 19.8327H8.16602V20.9993H19.8327V19.8327H22.166V24.4993C22.166 25.141 21.9377 25.6905 21.4812 26.1478C21.0238 26.6044 20.4743 26.8327 19.8327 26.8327H8.16602C7.52435 26.8327 6.97524 26.6044 6.51868 26.1478C6.06135 25.6905 5.83268 25.141 5.83268 24.4993V19.8327ZM8.16602 8.16601H5.83268V3.49935C5.83268 2.85768 6.06135 2.30818 6.51868 1.85085C6.97524 1.39429 7.52435 1.16602 8.16602 1.16602H19.8327C20.4743 1.16602 21.0238 1.39429 21.4812 1.85085C21.9377 2.30818 22.166 2.85768 22.166 3.49935V8.16601H19.8327V6.99935H8.16602V8.16601ZM8.16602 23.3327V24.4993H19.8327V23.3327H8.16602ZM8.16602 4.66602H19.8327V3.49935H8.16602V4.66602ZM17.966 19.366L16.3327 17.6743L20.0077 13.9993L16.3327 10.3243L17.966 8.63268L23.3327 13.9993L17.966 19.366Z"
    fill="white" />
</svg>