<svg width="34" height="34" viewBox="0 0 34 34" fill="none" xmlns="http://www.w3.org/2000/svg">
<g clip-path="url(#clip0_1434_39)">
<path d="M16.9997 18.4173C17.7821 18.4173 18.4163 17.7831 18.4163 17.0007C18.4163 16.2182 17.7821 15.584 16.9997 15.584C16.2173 15.584 15.583 16.2182 15.583 17.0007C15.583 17.7831 16.2173 18.4173 16.9997 18.4173Z" stroke="white" stroke-width="2" stroke-linecap="round" stroke-linejoin="round"/>
<path d="M16.9997 8.49935C17.7821 8.49935 18.4163 7.86509 18.4163 7.08268C18.4163 6.30028 17.7821 5.66602 16.9997 5.66602C16.2173 5.66602 15.583 6.30028 15.583 7.08268C15.583 7.86509 16.2173 8.49935 16.9997 8.49935Z" stroke="white" stroke-width="2" stroke-linecap="round" stroke-linejoin="round"/>
<path d="M16.9997 28.3333C17.7821 28.3333 18.4163 27.6991 18.4163 26.9167C18.4163 26.1343 17.7821 25.5 16.9997 25.5C16.2173 25.5 15.583 26.1343 15.583 26.9167C15.583 27.6991 16.2173 28.3333 16.9997 28.3333Z" stroke="white" stroke-width="2" stroke-linecap="round" stroke-linejoin="round"/>
<path d="M26.9167 18.4173C27.6991 18.4173 28.3333 17.7831 28.3333 17.0007C28.3333 16.2182 27.6991 15.584 26.9167 15.584C26.1343 15.584 25.5 16.2182 25.5 17.0007C25.5 17.7831 26.1343 18.4173 26.9167 18.4173Z" stroke="white" stroke-width="2" stroke-linecap="round" stroke-linejoin="round"/>
<path d="M26.9167 8.49935C27.6991 8.49935 28.3333 7.86509 28.3333 7.08268C28.3333 6.30028 27.6991 5.66602 26.9167 5.66602C26.1343 5.66602 25.5 6.30028 25.5 7.08268C25.5 7.86509 26.1343 8.49935 26.9167 8.49935Z" stroke="white" stroke-width="2" stroke-linecap="round" stroke-linejoin="round"/>
<path d="M26.9167 28.3333C27.6991 28.3333 28.3333 27.6991 28.3333 26.9167C28.3333 26.1343 27.6991 25.5 26.9167 25.5C26.1343 25.5 25.5 26.1343 25.5 26.9167C25.5 27.6991 26.1343 28.3333 26.9167 28.3333Z" stroke="white" stroke-width="2" stroke-linecap="round" stroke-linejoin="round"/>
</g>
<defs>
<clipPath id="clip0_1434_39">
<rect width="34" height="34" fill="white"/>
</clipPath>
</defs>
</svg>
