<svg xmlns="http://www.w3.org/2000/svg" width="31" height="46" viewBox="0 0 31 46" fill="none">
  <g clip-path="url(#clip0_2371_876)">
    <path
      d="M15.5 23.0007C15.5 20.9673 16.3165 19.0173 17.7699 17.5795C19.2233 16.1417 21.1946 15.334 23.25 15.334C25.3054 15.334 27.2767 16.1417 28.7301 17.5795C30.1835 19.0173 31 20.9673 31 23.0007C31 25.034 30.1835 26.984 28.7301 28.4218C27.2767 29.8596 25.3054 30.6673 23.25 30.6673C21.1946 30.6673 19.2233 29.8596 17.7699 28.4218C16.3165 26.984 15.5 25.034 15.5 23.0007Z"
      fill="#1ABCFE" />
    <path
      d="M0 38.3327C0 36.2994 0.816515 34.3493 2.26992 32.9115C3.72333 31.4738 5.69457 30.666 7.75 30.666H15.5V38.3327C15.5 40.366 14.6835 42.3161 13.2301 43.7538C11.7767 45.1916 9.80543 45.9993 7.75 45.9993C5.69457 45.9993 3.72333 45.1916 2.26992 43.7538C0.816515 42.3161 0 40.366 0 38.3327H0Z"
      fill="#0ACF83" />
    <path
      d="M15.5 0V15.3333H23.25C25.3054 15.3333 27.2767 14.5256 28.7301 13.0878C30.1835 11.65 31 9.69999 31 7.66667C31 5.63334 30.1835 3.68329 28.7301 2.24551C27.2767 0.807736 25.3054 0 23.25 0L15.5 0Z"
      fill="#FF7262" />
    <path
      d="M0 7.66667C0 9.69999 0.816515 11.65 2.26992 13.0878C3.72333 14.5256 5.69457 15.3333 7.75 15.3333H15.5V0H7.75C5.69457 0 3.72333 0.807736 2.26992 2.24551C0.816515 3.68329 0 5.63334 0 7.66667H0Z"
      fill="#F24E1E" />
    <path
      d="M0 23.0007C0 25.034 0.816515 26.984 2.26992 28.4218C3.72333 29.8596 5.69457 30.6673 7.75 30.6673H15.5V15.334H7.75C5.69457 15.334 3.72333 16.1417 2.26992 17.5795C0.816515 19.0173 0 20.9673 0 23.0007H0Z"
      fill="#A259FF" />
  </g>
  <defs>
    <clipPath id="clip0_2371_876">
      <rect width="31" height="46" fill="white" />
    </clipPath>
  </defs>
</svg>