<svg xmlns="http://www.w3.org/2000/svg" width="35" height="47" viewBox="0 0 35 47" fill="none">
  <path fillRule="evenodd" clipRule="evenodd"
    d="M30.6845 46.8694H4.20298C1.95307 46.8694 0.128906 45.0453 0.128906 42.7954V4.09165C0.128906 1.84174 1.95307 0.0175781 4.20298 0.0175781H23.5273C23.5294 0.0175781 23.5324 0.0175781 23.5345 0.0175781H23.5548C23.8808 0.0175781 24.1588 0.18156 24.3452 0.419893L34.3562 10.4309C34.5956 10.6173 34.7585 10.8954 34.7585 11.2213V11.2427C34.7585 11.2447 34.7585 11.2457 34.7585 11.2478V42.7954C34.7585 45.0453 32.9344 46.8694 30.6845 46.8694ZM24.5733 3.46119V10.2028H31.3149L24.5733 3.46119ZM32.7215 12.2398H23.5548C22.9916 12.2398 22.5363 11.7835 22.5363 11.2213V2.05462H4.20298C3.07854 2.05462 2.16594 2.96721 2.16594 4.09165V42.7954C2.16594 43.9198 3.07854 44.8324 4.20298 44.8324H30.6845C31.8089 44.8324 32.7215 43.9198 32.7215 42.7954V12.2398ZM26.6104 38.7213H8.27705C7.71381 38.7213 7.25854 38.266 7.25854 37.7028C7.25854 37.1405 7.71381 36.6842 8.27705 36.6842H26.6104C27.1736 36.6842 27.6289 37.1405 27.6289 37.7028C27.6289 38.266 27.1736 38.7213 26.6104 38.7213ZM26.6104 30.5731H8.27705C7.71381 30.5731 7.25854 30.1179 7.25854 29.5546C7.25854 28.9924 7.71381 28.5361 8.27705 28.5361H26.6104C27.1736 28.5361 27.6289 28.9924 27.6289 29.5546C27.6289 30.1179 27.1736 30.5731 26.6104 30.5731ZM26.6104 22.425H8.27705C7.71381 22.425 7.25854 21.9697 7.25854 21.4065C7.25854 20.8442 7.71381 20.3879 8.27705 20.3879H26.6104C27.1736 20.3879 27.6289 20.8442 27.6289 21.4065C27.6289 21.9697 27.1736 22.425 26.6104 22.425Z"
    fill="white" />
</svg>