<svg width="52" height="52" viewBox="0 0 52 52" fill="none" xmlns="http://www.w3.org/2000/svg">
  <path
    d="M49.8346 41.1667C49.8346 42.3159 49.3781 43.4181 48.5654 44.2308C47.7528 45.0435 46.6506 45.5 45.5013 45.5H6.5013C5.35203 45.5 4.24983 45.0435 3.43717 44.2308C2.62452 43.4181 2.16797 42.3159 2.16797 41.1667V17.3333C2.16797 16.1841 2.62452 15.0819 3.43717 14.2692C4.24983 13.4565 5.35203 13 6.5013 13H15.168L19.5013 6.5H32.5013L36.8346 13H45.5013C46.6506 13 47.7528 13.4565 48.5654 14.2692C49.3781 15.0819 49.8346 16.1841 49.8346 17.3333V41.1667Z"
    stroke="white" stroke-width="3" stroke-linecap="round" stroke-linejoin="round" />
  <path
    d="M25.9987 36.8333C30.7852 36.8333 34.6654 32.9531 34.6654 28.1667C34.6654 23.3802 30.7852 19.5 25.9987 19.5C21.2122 19.5 17.332 23.3802 17.332 28.1667C17.332 32.9531 21.2122 36.8333 25.9987 36.8333Z"
    stroke="white" stroke-width="3" stroke-linecap="round" stroke-linejoin="round" />
</svg>