<svg xmlns="http://www.w3.org/2000/svg" width="24" height="24" viewBox="0 0 24 24" fill="none">
  <path
    d="M15.0514 5C16.0281 5.19057 16.9258 5.66826 17.6295 6.37194C18.3331 7.07561 18.8108 7.97326 19.0014 8.95M15.0514 1C17.0807 1.22544 18.973 2.13417 20.4176 3.57701C21.8623 5.01984 22.7734 6.91101 23.0014 8.94M22.0014 16.92V19.92C22.0025 20.1985 21.9455 20.4742 21.8339 20.7293C21.7223 20.9845 21.5587 21.2136 21.3535 21.4019C21.1483 21.5901 20.906 21.7335 20.6421 21.8227C20.3783 21.9119 20.0988 21.9451 19.8214 21.92C16.7442 21.5856 13.7884 20.5341 11.1914 18.85C8.77523 17.3147 6.72673 15.2662 5.1914 12.85C3.50138 10.2412 2.44964 7.27099 2.1214 4.18C2.09641 3.90347 2.12927 3.62476 2.2179 3.36162C2.30652 3.09849 2.44897 2.85669 2.63616 2.65162C2.82336 2.44655 3.0512 2.28271 3.30519 2.17052C3.55917 2.05833 3.83374 2.00026 4.1114 2H7.1114C7.5967 1.99522 8.06719 2.16708 8.43516 2.48353C8.80313 2.79999 9.04348 3.23945 9.1114 3.72C9.23802 4.68007 9.47285 5.62273 9.8114 6.53C9.94594 6.88792 9.97506 7.27691 9.8953 7.65088C9.81555 8.02485 9.63026 8.36811 9.3614 8.64L8.0914 9.91C9.51495 12.4135 11.5879 14.4864 14.0914 15.91L15.3614 14.64C15.6333 14.3711 15.9766 14.1858 16.3505 14.1061C16.7245 14.0263 17.1135 14.0555 17.4714 14.19C18.3787 14.5286 19.3213 14.7634 20.2814 14.89C20.7672 14.9585 21.2108 15.2032 21.5279 15.5775C21.8451 15.9518 22.0136 16.4296 22.0014 16.92Z"
    stroke="white" stroke-width="2" stroke-linecap="round" stroke-linejoin="round" />
</svg>