<svg width="26" height="26" viewBox="0 0 26 26" fill="none" xmlns="http://www.w3.org/2000/svg">
<path d="M21.1253 10.291C20.0095 10.291 19.067 10.9627 18.6445 11.916H15.4812C15.0587 10.9627 14.1162 10.291 13.0003 10.291C11.8845 10.291 10.942 10.9627 10.5195 11.916H7.35616C6.93366 10.9627 5.99116 10.291 4.87533 10.291C4.15703 10.291 3.46816 10.5764 2.96024 11.0843C2.45233 11.5922 2.16699 12.2811 2.16699 12.9993C2.16699 13.7176 2.45233 14.4065 2.96024 14.9144C3.46816 15.4223 4.15703 15.7077 4.87533 15.7077C5.99116 15.7077 6.93366 15.036 7.35616 14.0827H10.5195C10.942 15.036 11.8845 15.7077 13.0003 15.7077C14.1162 15.7077 15.0587 15.036 15.4812 14.0827H18.6445C19.067 15.036 20.0095 15.7077 21.1253 15.7077C21.8436 15.7077 22.5325 15.4223 23.0404 14.9144C23.5483 14.4065 23.8337 13.7176 23.8337 12.9993C23.8337 12.2811 23.5483 11.5922 23.0404 11.0843C22.5325 10.5764 21.8436 10.291 21.1253 10.291Z" fill="white"/>
</svg>
